<?xml version="1.0" encoding="utf-8"?>
<svg class="logo logo--sfa" id="uuid-061d5077-49a5-4bfb-98ae-eabe8b6293e4" xmlns="http://www.w3.org/2000/svg" xmlns:xlink="http://www.w3.org/1999/xlink" viewBox="0 0 651.57 95.02">
<style>
.futures {
    fill: url(#uuid-f46f8acd-f10c-48c7-99ca-bdda8debdfab);
    stroke: url(#uuid-bb9922f4-fbc9-4744-aecb-026dfe6af698);
    -webkit-transition: all .3s;
    transition: all .3s;
}
</style>
<defs>
<linearGradient id="uuid-f46f8acd-f10c-48c7-99ca-bdda8debdfab" x1="282.08" y1="39.85" x2="651.54" y2="39.85" gradientUnits="userSpaceOnUse">
<stop offset="0" stop-color="#e94c54"></stop><stop offset=".25" stop-color="#f39121"></stop>
<stop offset=".5" stop-color="#8cc04a"></stop><stop offset=".75" stop-color="#099ad7"></stop>
<stop offset="1" stop-color="#6e5892"></stop></linearGradient>
<linearGradient id="uuid-bb9922f4-fbc9-4744-aecb-026dfe6af698" x1="282.05" y1="39.85" x2="651.57" y2="39.85" xlink:href="#uuid-f46f8acd-f10c-48c7-99ca-bdda8debdfab">
</linearGradient></defs><g id="uuid-b585e0c1-b3c8-4df3-a138-42750cd26954">
<g>
<path class="futures" d="m282.08,1.12h56.67v12.18h-43.29v20.78h38.4v12.18h-38.4v31.01h-13.38V1.12Zm62.72,55.26V19.83h13.15v32.64c0,8.92,4.47,13.92,12.3,13.92s12.95-5.22,12.95-14.15V19.83h13.27v57.44h-13.27v-8.92c-3.7,5.44-9.03,10.12-17.96,10.12-12.94,0-20.44-8.7-20.44-22.08Zm66.41,5v-30.24h-7.3v-11.31h7.3V4.05h13.15v15.78h15.45v11.31h-15.45v28.18c0,5.12,2.62,7.18,7.07,7.18,2.94,0,5.55-.65,8.16-1.96v10.77c-3.25,1.85-6.85,2.94-11.85,2.94-9.68,0-16.53-4.24-16.53-16.86Zm37.95-5V19.83h13.17v32.64c0,8.92,4.46,13.92,12.29,13.92s12.94-5.22,12.94-14.15V19.83h13.27v57.44h-13.27v-8.92c-3.7,5.44-9.03,10.12-17.95,10.12-12.94,0-20.46-8.7-20.46-22.08Zm61.03-36.55h13.17v12.94c3.58-8.59,10.21-14.46,20.34-14.03v13.93h-.76c-11.53,0-19.57,7.5-19.57,22.74v21.87h-13.17V19.83Zm36.6,28.94v-.22c0-16.42,11.64-29.91,28.06-29.91,18.28,0,27.52,14.35,27.52,30.89,0,1.2-.11,2.4-.21,3.7h-42.21c1.42,9.35,8.05,14.58,16.53,14.58,6.41,0,10.98-2.39,15.55-6.85l7.72,6.85c-5.44,6.53-12.94,10.77-23.49,10.77-16.65,0-29.48-12.08-29.48-29.81Zm42.83-4.24c-.87-8.49-5.87-15.12-14.57-15.12-8.05,0-13.7,6.2-14.9,15.12h29.47Zm16.25,25.24l5.88-8.93c6.3,4.68,12.94,7.07,18.82,7.07s8.92-2.39,8.92-6.19v-.22c0-4.46-6.09-5.99-12.83-8.06-8.48-2.39-17.95-5.88-17.95-16.86v-.21c0-10.88,9.03-17.51,20.46-17.51,7.18,0,15.01,2.5,21.1,6.52l-5.23,9.36c-5.55-3.37-11.42-5.44-16.21-5.44-5.11,0-8.05,2.4-8.05,5.65v.22c0,4.24,6.2,5.98,12.94,8.16,8.39,2.61,17.85,6.41,17.85,16.75v.22c0,12.08-9.35,18.06-21.32,18.06-8.16,0-17.19-2.93-24.37-8.59Z" style="stroke-miterlimit:10; stroke-width:.06px;"></path><g fill="#ffffff" stroke="#ffffff"><path d="m.04,66.17l8.05-9.58c7.29,6.31,14.68,9.9,24.04,9.9,8.27,0,13.49-3.92,13.49-9.57v-.22c0-5.44-3.04-8.37-17.18-11.65C12.22,41.15,3.09,36.36,3.09,22.33v-.21C3.09,9.06,13.96.03,29.08.03,40.18.03,48.99,3.4,56.71,9.6l-7.18,10.12c-6.85-5.11-13.7-7.83-20.67-7.83-7.83,0-12.4,4.03-12.4,9.03v.22c0,5.88,3.48,8.49,18.17,11.97,16.1,3.92,24.36,9.68,24.36,22.3v.22c0,14.25-11.2,22.74-27.19,22.74-11.64,0-22.63-4.02-31.76-12.18Z" style="stroke-miterlimit:10; stroke-width:.06px;"></path><path d="m70.26,61.38v-30.24h-7.29v-11.31h7.29V4.05h13.17v15.78h15.45v11.31h-15.45v28.18c0,5.12,2.61,7.18,7.07,7.18,2.94,0,5.55-.65,8.15-1.96v10.77c-3.26,1.85-6.85,2.94-11.85,2.94-9.68,0-16.53-4.24-16.53-16.86Z" style="stroke-miterlimit:10; stroke-width:.06px;"></path><path d="m105.03,48.87v-.22c0-16.43,13.05-30.02,30.67-30.02s30.57,13.37,30.57,29.81v.21c0,16.32-13.06,29.92-30.79,29.92s-30.45-13.38-30.45-29.7Zm48.08,0v-.22c0-10.12-7.29-18.49-17.62-18.49s-17.29,8.26-17.29,18.28v.21c0,10.01,7.29,18.39,17.51,18.39s17.4-8.27,17.4-18.17Z" style="stroke-miterlimit:10; stroke-width:.06px;"></path><path d="m173.37,19.83h13.17v12.94c3.58-8.59,10.22-14.46,20.34-14.03v13.93h-.76c-11.54,0-19.58,7.5-19.58,22.74v21.87h-13.17V19.83Z" style="stroke-miterlimit:10; stroke-width:.06px;"></path><path d="m258.68,19.83h13.71l-22.85,59.08c-4.57,11.74-9.68,16.09-18.92,16.09-5.44,0-9.58-1.3-13.6-3.48l4.46-9.79c2.39,1.31,5,2.17,7.72,2.17,3.69,0,5.98-1.63,8.16-6.52l-23.93-57.55h14.14l16.21,42.64,14.9-42.64Z" style="stroke-miterlimit:10; stroke-width:.06px;"></path>
</g></g></g></svg>